<svg width="106" height="19" viewBox="0 0 106 19" fill="none" xmlns="http://www.w3.org/2000/svg">
<path d="M3.58111 18.1767L5.1025 11.4561L0 6.93583L6.74092 6.33791L9.36239 0L11.9839 6.33791L18.7248 6.93583L13.6223 11.4561L15.1437 18.1767L9.36239 14.6131L3.58111 18.1767Z" fill="#E6AD0D"/>
<path d="M25.306 18.1767L26.8274 11.4561L21.7249 6.93583L28.4658 6.33791L31.0872 0L33.7087 6.33791L40.4496 6.93583L35.3471 11.4561L36.8685 18.1767L31.0872 14.6131L25.306 18.1767Z" fill="#E6AD0D"/>
<path d="M47.0308 18.1767L48.5522 11.4561L43.4497 6.93583L50.1906 6.33791L52.8121 0L55.4336 6.33791L62.1745 6.93583L57.072 11.4561L58.5934 18.1767L52.8121 14.6131L47.0308 18.1767Z" fill="#E6AD0D"/>
<path d="M68.7556 18.1767L70.2769 11.4561L65.1744 6.93583L71.9154 6.33791L74.5368 0L77.1583 6.33791L83.8992 6.93583L78.7967 11.4561L80.3181 18.1767L74.5368 14.6131L68.7556 18.1767Z" fill="#E6AD0D"/>
<path d="M90.4803 18.1767L92.0017 11.4561L86.8992 6.93583L93.6401 6.33791L96.2616 0L98.883 6.33791L105.624 6.93583L100.521 11.4561L102.043 18.1767L96.2616 14.6131L90.4803 18.1767Z" fill="#E6AD0D"/>
</svg>
