<svg width="303" height="52" viewBox="0 0 303 52" fill="none" xmlns="http://www.w3.org/2000/svg">
<path d="M41.6389 6.9934C34.3403 7.30398 26.9252 2.90413 24.13 0.665374C36.0873 -2.40159 41.7553 6.10049 41.9494 6.60518C42.1047 7.00893 42.8682 7.29104 43.2306 7.38163L42.9976 7.57574C42.9329 7.54986 42.5706 7.39716 41.6389 6.9934Z" fill="url(#paint0_linear_111_3)"/>
<path d="M41.2926 8.6279L45.4312 5.33105L46.8342 6.80412C46.577 7.27175 45.5575 8.81028 43.5373 11.2233C52.7264 27.427 34.1378 48.0498 24.7383 50.9258C15.3387 53.8018 10.5688 49.8736 7.06153 50.9258C3.55424 51.978 2.29161 51.0661 0.818548 49.8736C-0.65451 48.6811 0.187236 46.0857 0.818548 42.7187C1.44986 39.3517 -0.303784 38.4398 0.187236 32.6177C3.04918 4.22275 28.7833 4.79327 41.2926 8.6279Z" fill="url(#paint1_linear_111_3)"/>
<path d="M43.5489 11.5039C42.0828 11.3196 41.309 9.53207 41.1053 8.66137L45.6107 5.05054C45.967 5.43467 46.7713 6.29512 47.1379 6.66389C47.1379 6.97119 44.847 9.89059 43.5489 11.5039Z" fill="url(#paint2_linear_111_3)"/>
<path d="M56.8053 41.4276V13.6005H63.762V36.0696H76.8978V41.4276H56.8053ZM79.4553 17.7054V12.4771H87.017V17.7054H79.4553ZM80.017 41.4276V26.0881H76.9923L77.5973 20.9462H86.9738V41.4276H80.017ZM99.8327 41.8597C97.2978 41.8597 95.4253 41.2116 94.2155 39.9153C93.0344 38.619 92.4439 36.833 92.4439 34.5573V26.2178H89.6784V20.9462H92.4439V16.6684L99.4006 14.8104V20.9462H104.37L104.067 26.2178H99.4006V34.082C99.4006 35.0614 99.6455 35.7527 100.135 36.156C100.625 36.5305 101.359 36.7177 102.339 36.7177C103.174 36.7177 104.024 36.5737 104.888 36.2856V40.9955C103.534 41.5716 101.849 41.8597 99.8327 41.8597ZM115.994 41.8597C113.459 41.8597 111.587 41.2116 110.377 39.9153C109.196 38.619 108.605 36.833 108.605 34.5573V26.2178H105.84V20.9462H108.605V16.6684L115.562 14.8104V20.9462H120.531L120.229 26.2178H115.562V34.082C115.562 35.0614 115.807 35.7527 116.297 36.156C116.786 36.5305 117.521 36.7177 118.5 36.7177C119.336 36.7177 120.186 36.5737 121.05 36.2856V40.9955C119.696 41.5716 118.011 41.8597 115.994 41.8597ZM130.038 41.8597C127.791 41.8597 126.178 41.37 125.199 40.3906C124.219 39.4112 123.73 37.8412 123.73 35.6807V12.3042H130.687V34.9894C130.687 35.6519 130.816 36.1128 131.075 36.3721C131.363 36.6025 131.781 36.7177 132.329 36.7177C133.106 36.7177 133.798 36.6169 134.403 36.4153V41.1251C133.74 41.3844 133.077 41.5716 132.415 41.6869C131.781 41.8021 130.989 41.8597 130.038 41.8597ZM147.997 41.8597C144.425 41.8597 141.559 40.9811 139.398 39.2239C137.238 37.4379 136.158 34.7589 136.158 31.1869C136.158 27.9318 137.051 25.3392 138.837 23.4091C140.623 21.4791 143.302 20.5141 146.874 20.5141C150.129 20.5141 152.649 21.3495 154.435 23.0203C156.221 24.691 157.114 26.9379 157.114 29.761V33.4338H142.596C142.913 34.7877 143.647 35.7383 144.8 36.2856C145.981 36.8042 147.579 37.0634 149.596 37.0634C150.719 37.0634 151.857 36.9626 153.009 36.761C154.191 36.5593 155.17 36.3001 155.948 35.9832V40.5202C154.968 40.9811 153.802 41.3124 152.448 41.514C151.094 41.7445 149.61 41.8597 147.997 41.8597ZM142.596 29.4153H151.065V28.5079C151.065 27.4997 150.763 26.7075 150.158 26.1314C149.553 25.5264 148.53 25.2239 147.09 25.2239C145.419 25.2239 144.252 25.5696 143.59 26.261C142.927 26.9235 142.596 27.975 142.596 29.4153ZM169.936 41.4276V13.6005H176.892V36.0696H190.028V41.4276H169.936ZM203.486 41.8597C199.914 41.8597 197.048 40.9811 194.887 39.2239C192.727 37.4379 191.647 34.7589 191.647 31.1869C191.647 27.9318 192.54 25.3392 194.326 23.4091C196.112 21.4791 198.791 20.5141 202.363 20.5141C205.618 20.5141 208.138 21.3495 209.924 23.0203C211.71 24.691 212.603 26.9379 212.603 29.761V33.4338H198.085C198.402 34.7877 199.136 35.7383 200.289 36.2856C201.47 36.8042 203.069 37.0634 205.085 37.0634C206.208 37.0634 207.346 36.9626 208.499 36.761C209.68 36.5593 210.659 36.3001 211.437 35.9832V40.5202C210.457 40.9811 209.291 41.3124 207.937 41.514C206.583 41.7445 205.099 41.8597 203.486 41.8597ZM198.085 29.4153H206.554V28.5079C206.554 27.4997 206.252 26.7075 205.647 26.1314C205.042 25.5264 204.019 25.2239 202.579 25.2239C200.908 25.2239 199.741 25.5696 199.079 26.261C198.416 26.9235 198.085 27.975 198.085 29.4153ZM216.141 41.4276V20.9462H222.58L222.796 22.761C223.717 22.0984 224.754 21.5655 225.907 21.1622C227.059 20.7301 228.298 20.5141 229.623 20.5141C231.005 20.5141 232.086 20.7301 232.863 21.1622C233.641 21.5655 234.246 22.1417 234.678 22.8906C235.629 22.1993 236.695 21.6375 237.876 21.2054C239.086 20.7445 240.497 20.5141 242.11 20.5141C244.501 20.5141 246.258 21.1334 247.382 22.3721C248.505 23.6108 249.067 25.4976 249.067 28.0326V41.4276H242.197V28.8536C242.197 27.7301 241.952 26.9235 241.462 26.4338C241.001 25.9153 240.238 25.656 239.172 25.656C238.51 25.656 237.861 25.8001 237.228 26.0881C236.594 26.3474 236.061 26.7219 235.629 27.2116C235.686 27.5285 235.715 27.8309 235.715 28.119C235.744 28.4071 235.759 28.7527 235.759 29.156V41.4276H229.277V28.7672C229.277 27.7301 229.09 26.9523 228.715 26.4338C228.37 25.9153 227.693 25.656 226.684 25.656C225.964 25.656 225.287 25.8433 224.654 26.2178C224.02 26.5923 223.444 27.0244 222.925 27.5141V41.4276H216.141ZM263.694 41.8597C259.748 41.8597 256.838 40.9523 254.966 39.1375C253.093 37.2939 252.157 34.6437 252.157 31.1869C252.157 27.7589 253.093 25.1231 254.966 23.2795C256.867 21.4359 259.777 20.5141 263.694 20.5141C267.641 20.5141 270.55 21.4359 272.423 23.2795C274.324 25.1231 275.275 27.7589 275.275 31.1869C275.275 34.6437 274.338 37.2939 272.466 39.1375C270.593 40.9523 267.67 41.8597 263.694 41.8597ZM263.694 36.4153C265.307 36.4153 266.46 36.012 267.151 35.2054C267.842 34.3988 268.188 33.0593 268.188 31.1869C268.188 29.3145 267.842 27.975 267.151 27.1684C266.46 26.3618 265.307 25.9585 263.694 25.9585C262.11 25.9585 260.972 26.3618 260.281 27.1684C259.589 27.975 259.244 29.3145 259.244 31.1869C259.244 33.0593 259.589 34.3988 260.281 35.2054C260.972 36.012 262.11 36.4153 263.694 36.4153ZM278.804 41.4276V20.9462H285.285L285.501 22.7178C286.337 22.1417 287.388 21.6375 288.656 21.2054C289.923 20.7445 291.277 20.5141 292.717 20.5141C295.368 20.5141 297.298 21.1478 298.508 22.4153C299.717 23.6828 300.322 25.6416 300.322 28.2918V41.4276H293.366V28.8536C293.366 27.7013 293.121 26.8803 292.631 26.3906C292.141 25.9009 291.263 25.656 289.995 25.656C289.246 25.656 288.483 25.8289 287.705 26.1746C286.927 26.5202 286.279 26.9523 285.761 27.4709V41.4276H278.804Z" fill="#EEB516"/>
<defs>
<linearGradient id="paint0_linear_111_3" x1="33.6803" y1="0" x2="33.6803" y2="7.57574" gradientUnits="userSpaceOnUse">
<stop stop-color="#418C06"/>
<stop offset="1" stop-color="#1B3705" stop-opacity="0.9"/>
</linearGradient>
<linearGradient id="paint1_linear_111_3" x1="23.4171" y1="5.33105" x2="23.4171" y2="52" gradientUnits="userSpaceOnUse">
<stop stop-color="#FABE16"/>
<stop offset="1" stop-color="#FF9D0A"/>
</linearGradient>
<linearGradient id="paint2_linear_111_3" x1="44.1216" y1="5.05054" x2="44.1216" y2="11.5039" gradientUnits="userSpaceOnUse">
<stop stop-color="#7B4324"/>
<stop offset="1" stop-color="#73411D"/>
</linearGradient>
</defs>
</svg>
