<svg width="770" height="133" viewBox="0 0 770 133" fill="none" xmlns="http://www.w3.org/2000/svg">
<path d="M106.001 17.8033C87.4212 18.5939 68.5445 7.39309 61.4287 1.69386C91.8686 -6.11376 106.298 15.5301 106.792 16.8149C107.187 17.8428 109.131 18.561 110.053 18.7916L109.46 19.2857C109.296 19.2198 108.373 18.8311 106.001 17.8033Z" fill="url(#paint0_linear_101_14)"/>
<path d="M105.12 21.9643L115.655 13.5714L119.227 17.3214C118.572 18.5119 115.977 22.4286 110.834 28.5714C134.227 69.8214 86.9053 122.321 62.9767 129.643C39.0481 136.964 26.9053 126.964 17.9767 129.643C9.04811 132.321 5.83379 130 2.08379 126.964C-1.6662 123.929 0.476651 117.321 2.08379 108.75C3.69094 100.179 -0.773349 97.8571 0.476651 83.0357C7.76237 10.75 73.2743 12.2024 105.12 21.9643Z" fill="url(#paint1_linear_101_14)"/>
<path d="M110.864 29.2857C107.131 28.8164 105.161 24.2659 104.643 22.0494L116.112 12.8572C117.019 13.8351 119.067 16.0255 120 16.9643C120 17.7466 114.168 25.1786 110.864 29.2857Z" fill="url(#paint2_linear_101_14)"/>
<path d="M144.61 105V34.16H162.32V91.36H195.76V105H144.61ZM202.271 44.61V31.3H221.521V44.61H202.271ZM203.701 105V65.95H196.001L197.541 52.86H221.411V105H203.701ZM254.146 106.1C247.693 106.1 242.926 104.45 239.846 101.15C236.839 97.85 235.336 93.3033 235.336 87.51V66.28H228.296V52.86H235.336V41.97L253.046 37.24V52.86H265.696L264.926 66.28H253.046V86.3C253.046 88.7933 253.669 90.5533 254.916 91.58C256.163 92.5333 258.033 93.01 260.526 93.01C262.653 93.01 264.816 92.6433 267.016 91.91V103.9C263.569 105.367 259.279 106.1 254.146 106.1ZM295.289 106.1C288.835 106.1 284.069 104.45 280.989 101.15C277.982 97.85 276.479 93.3033 276.479 87.51V66.28H269.439V52.86H276.479V41.97L294.189 37.24V52.86H306.839L306.069 66.28H294.189V86.3C294.189 88.7933 294.812 90.5533 296.059 91.58C297.305 92.5333 299.175 93.01 301.669 93.01C303.795 93.01 305.959 92.6433 308.159 91.91V103.9C304.712 105.367 300.422 106.1 295.289 106.1ZM331.041 106.1C325.321 106.1 321.214 104.853 318.721 102.36C316.228 99.8667 314.981 95.87 314.981 90.37V30.86H332.691V88.61C332.691 90.2967 333.021 91.47 333.681 92.13C334.414 92.7167 335.478 93.01 336.871 93.01C338.851 93.01 340.611 92.7533 342.151 92.24V104.23C340.464 104.89 338.778 105.367 337.091 105.66C335.478 105.953 333.461 106.1 331.041 106.1ZM376.759 106.1C367.666 106.1 360.369 103.863 354.869 99.39C349.369 94.8433 346.619 88.0233 346.619 78.93C346.619 70.6433 348.892 64.0433 353.439 59.13C357.986 54.2167 364.806 51.76 373.899 51.76C382.186 51.76 388.602 53.8867 393.149 58.14C397.696 62.3933 399.969 68.1133 399.969 75.3V84.65H363.009C363.816 88.0967 365.686 90.5167 368.619 91.91C371.626 93.23 375.696 93.89 380.829 93.89C383.689 93.89 386.586 93.6333 389.519 93.12C392.526 92.6067 395.019 91.9467 396.999 91.14V102.69C394.506 103.863 391.536 104.707 388.089 105.22C384.642 105.807 380.866 106.1 376.759 106.1ZM363.009 74.42H384.569V72.11C384.569 69.5433 383.799 67.5267 382.259 66.06C380.719 64.52 378.116 63.75 374.449 63.75C370.196 63.75 367.226 64.63 365.539 66.39C363.852 68.0767 363.009 70.7533 363.009 74.42ZM432.608 105V34.16H450.318V91.36H483.758V105H432.608ZM518.019 106.1C508.925 106.1 501.629 103.863 496.129 99.39C490.629 94.8433 487.879 88.0233 487.879 78.93C487.879 70.6433 490.152 64.0433 494.699 59.13C499.245 54.2167 506.065 51.76 515.159 51.76C523.445 51.76 529.862 53.8867 534.409 58.14C538.955 62.3933 541.229 68.1133 541.229 75.3V84.65H504.269C505.075 88.0967 506.945 90.5167 509.879 91.91C512.885 93.23 516.955 93.89 522.089 93.89C524.949 93.89 527.845 93.6333 530.779 93.12C533.785 92.6067 536.279 91.9467 538.259 91.14V102.69C535.765 103.863 532.795 104.707 529.349 105.22C525.902 105.807 522.125 106.1 518.019 106.1ZM504.269 74.42H525.829V72.11C525.829 69.5433 525.059 67.5267 523.519 66.06C521.979 64.52 519.375 63.75 515.709 63.75C511.455 63.75 508.485 64.63 506.799 66.39C505.112 68.0767 504.269 70.7533 504.269 74.42ZM550.235 105V52.86H566.625L567.175 57.48C569.522 55.7933 572.162 54.4367 575.095 53.41C578.028 52.31 581.182 51.76 584.555 51.76C588.075 51.76 590.825 52.31 592.805 53.41C594.785 54.4367 596.325 55.9033 597.425 57.81C599.845 56.05 602.558 54.62 605.565 53.52C608.645 52.3467 612.238 51.76 616.345 51.76C622.432 51.76 626.905 53.3367 629.765 56.49C632.625 59.6433 634.055 64.4467 634.055 70.9V105H616.565V72.99C616.565 70.13 615.942 68.0767 614.695 66.83C613.522 65.51 611.578 64.85 608.865 64.85C607.178 64.85 605.528 65.2167 603.915 65.95C602.302 66.61 600.945 67.5633 599.845 68.81C599.992 69.6167 600.065 70.3867 600.065 71.12C600.138 71.8533 600.175 72.7333 600.175 73.76V105H583.675V72.77C583.675 70.13 583.198 68.15 582.245 66.83C581.365 65.51 579.642 64.85 577.075 64.85C575.242 64.85 573.518 65.3267 571.905 66.28C570.292 67.2333 568.825 68.3333 567.505 69.58V105H550.235ZM671.292 106.1C661.245 106.1 653.838 103.79 649.072 99.17C644.305 94.4767 641.922 87.73 641.922 78.93C641.922 70.2033 644.305 63.4933 649.072 58.8C653.912 54.1067 661.318 51.76 671.292 51.76C681.338 51.76 688.745 54.1067 693.512 58.8C698.352 63.4933 700.772 70.2033 700.772 78.93C700.772 87.73 698.388 94.4767 693.622 99.17C688.855 103.79 681.412 106.1 671.292 106.1ZM671.292 92.24C675.398 92.24 678.332 91.2133 680.092 89.16C681.852 87.1067 682.732 83.6967 682.732 78.93C682.732 74.1633 681.852 70.7533 680.092 68.7C678.332 66.6467 675.398 65.62 671.292 65.62C667.258 65.62 664.362 66.6467 662.602 68.7C660.842 70.7533 659.962 74.1633 659.962 78.93C659.962 83.6967 660.842 87.1067 662.602 89.16C664.362 91.2133 667.258 92.24 671.292 92.24ZM709.756 105V52.86H726.256L726.806 57.37C728.933 55.9033 731.61 54.62 734.836 53.52C738.063 52.3467 741.51 51.76 745.176 51.76C751.923 51.76 756.836 53.3733 759.916 56.6C762.996 59.8267 764.536 64.8133 764.536 71.56V105H746.826V72.99C746.826 70.0567 746.203 67.9667 744.956 66.72C743.71 65.4733 741.473 64.85 738.246 64.85C736.34 64.85 734.396 65.29 732.416 66.17C730.436 67.05 728.786 68.15 727.466 69.47V105H709.756Z" fill="#EEB516"/>
<defs>
<linearGradient id="paint0_linear_101_14" x1="85.7411" y1="0" x2="85.7411" y2="19.2857" gradientUnits="userSpaceOnUse">
<stop stop-color="#418C06"/>
<stop offset="1" stop-color="#1B3705" stop-opacity="0.9"/>
</linearGradient>
<linearGradient id="paint1_linear_101_14" x1="59.6133" y1="13.5714" x2="59.6133" y2="132.377" gradientUnits="userSpaceOnUse">
<stop stop-color="#FABE16"/>
<stop offset="1" stop-color="#FF9D0A"/>
</linearGradient>
<linearGradient id="paint2_linear_101_14" x1="112.322" y1="12.8572" x2="112.322" y2="29.2857" gradientUnits="userSpaceOnUse">
<stop stop-color="#7B4324"/>
<stop offset="1" stop-color="#73411D"/>
</linearGradient>
</defs>
</svg>
